<svg id="Layer_1" data-name="Layer 1" xmlns="http://www.w3.org/2000/svg" viewBox="0 0 85.95 95.67"><defs><style>.cls-1{fill:#ddd;}.cls-2{fill:silver;}.cls-3{fill:#525252;}.cls-4{fill:#5d5d5d;}.cls-5{fill:#cd4040;}.cls-6{fill:#bfbcbc;}.cls-7{fill:#343434;}.cls-8{fill:#b3b3b3;}.cls-9{fill:#070707;}.cls-10{fill:#292929;}.cls-11{fill:#dad7d7;}.cls-12{fill:#ebe7e7;}.cls-13{fill:#131313;}</style></defs><title>bomb</title><path class="cls-1" d="M183.9,297.06a2.44,2.44,0,0,1,1.06,2.52c-.83,4.4,1.46,5.12,5,4.42v17c-4.09-.92-5.5.54-5.09,4.82.5,5.29-1.48,10.52-.93,15.88.23,2.29-.89,3.38-3.22,3.31-2.16-.06-4.34.07-6.5,0-3.4-.15-6.48-.33-5.39,4.82.46,2.2-1.37,3.18-3.52,3.18-16.83,0-33.66.12-50.49-.05-5.93-.06-3.19-5-3.85-8a2,2,0,0,1,2.52,1.1c1.54,4.31,5.06,4.08,8.6,4.07,12.27,0,24.55-.1,36.82,0,3.89,0,6.46-1,7-5.16a4,4,0,0,1,1.71-1.9c2.89-1.11,5.93-.43,8.9-.67,3.12-.26,4.91-1.49,4.7-5a30.37,30.37,0,0,1,.36-7.47,8.49,8.49,0,0,1,.35-1.74c1.28-8.19.27-16.44.6-24.65C182.62,301.38,182.11,299,183.9,297.06Z" transform="translate(-104.05 -257.35)"/><path d="M135.93,297c1.38-1.18.7-2.76.67-4.14,0-1.59-.27-3.27,2-2.93,5.7.87,6.81-2.26,6.37-6.92,5.29-.13,10.09-6.14,15.84-1.29.72.61,2,.44,2.93.25,2.31-.47,3,.54,2.78,2.66-.22,2.28,0,4.37,2.63,5.27,7.17-2.29,5.38,4,6.83,7.15,7.53,1.22,7.56,1.22,7.52,9.49,0,6.77.18,13.55-.12,20.32a4.52,4.52,0,0,1-3.45,2.59,4,4,0,0,0-3.47,3.72c-.43,3.37-2.64,4.31-5.65,4.32q-15,.05-30,0c-2,0-4-.24-5.39-2-1.27-2.63-2.14-5.46-5.47-6.55-2-.64-1.43-2.74-1.43-4.36,0-7.29.23-14.58-.1-21.85-.18-4.08,1-5.84,5.17-5.16A2.79,2.79,0,0,0,135.93,297Z" transform="translate(-104.05 -257.35)"/><path class="cls-2" d="M135.93,297c-.09.14-.2.4-.28.39-6.87-.68-7,3.45-6.71,8.65.4,6.25.11,12.54.08,18.81,0,2,.12,3.88,2.77,3.56,5.5-.67,4.81,2.83,4.36,6.23a3.52,3.52,0,0,0,1.13,2c5.62.94,11.29.2,16.93.42,1.83.07,4.1-.27,4.87,1.7,1.47,3.77,5,4.61,7.93,6.3,0,7,0,7-7,7-13.62,0-27.25,0-40.87,0-3.52,0-6.83.28-6.36-4.85.09-1-.85-1.74-1.78-2.22-1-1.16-2.41-.93-3.71-1-2.66-.09-3.24-1.76-3.25-4s.76-4,3.36-3.87c3.67.24,6.1-.1,5-5-.43-1.93,2.06-2.06,3.76-2.18,11.69-.78,11.69-.79,11.69-12.74q0-6,0-11.94C127.87,296.54,127.87,296.54,135.93,297Z" transform="translate(-104.05 -257.35)"/><path class="cls-3" d="M169.14,289.87c-3.32.13-2.9-2.33-3-4.39-.09-1.42,0-2.27-2.13-2.9-6.5-1.9-12.7,0-19,.4l-.07-.49c5.28-.43,7.45-4.21,9.11-8.52,1.32,1.44,2.66,1.25,4,0,1.38,0,1.68,1.06,1.56,2-.48,4,.94,5.9,5.23,5.14,2.07-.36,2.53,1.14,2.41,2.83C167,286.25,167.22,288.34,169.14,289.87Z" transform="translate(-104.05 -257.35)"/><path class="cls-4" d="M163.18,265.21c2.93-.48,4.2.63,4.12,3.73-.07,2.62-.28,4.36-3.65,4.29-3-.06-4.52-.8-4.44-4.16C159.27,266.18,160.06,264.65,163.18,265.21Z" transform="translate(-104.05 -257.35)"/><path class="cls-5" d="M171.55,257.39c2.86-.16,3.89,1.25,3.84,4.21s-1.2,3.61-3.88,3.71c-3.16.11-4-1.23-3.89-4.11C167.69,258.49,168.63,257.11,171.55,257.39Z" transform="translate(-104.05 -257.35)"/><path class="cls-6" d="M182.92,326.8c-.07-7.81-.31-15.62-.12-23.42.1-3.9-.29-6.57-5.17-5.58-.48.1-1.1-.5-1.66-.77l7.94,0q0,14.16.1,28.33c0,1.32.08,2.67-.85,3.79A1.66,1.66,0,0,1,182.92,326.8Z" transform="translate(-104.05 -257.35)"/><path class="cls-7" d="M158,274c-.19,2-1.58,2.08-3.09,2s-1.14-1.1-.92-2Z" transform="translate(-104.05 -257.35)"/><path class="cls-6" d="M167,345c-3.85.35-7.76,1.06-8.49-4.62-.29-2.23-2.37-2.42-4.33-2.39q-6.74.08-13.47,0c-1.62,0-3.37.42-4.72-1,6.75-1.14,13.56-.35,20.34-.48,6.48-.12,13-.18,19.45.06,2.82,4.82,1.82,6.75-3.52,6.91-1.43,0-2.93-.38-4.26.5Z" transform="translate(-104.05 -257.35)"/><path class="cls-2" d="M168,344a2.8,2.8,0,0,1,2.65-1c5.07.87,5.82-2,5.35-6a1.32,1.32,0,0,1-.22-1.48c.7-2-.65-4.49,1.47-6.15,2-.47,3.94-.78,5.72.61,0,3.49-.05,7,.06,10.48.08,2.55-1,3.62-3.54,3.55C175.66,343.92,171.83,344,168,344Z" transform="translate(-104.05 -257.35)"/><path class="cls-8" d="M176.1,336l-.1,1H136l.16-2.41c1.25,1.75,3.1,1.62,4.94,1.62,9.78,0,19.57-.08,29.35,0,3.09,0,5.31-.4,4.83-4.25-.35-2.8.95-4,3.74-3.71,1.51.14,3,.05,3.91-1.52l.24,2.37q-.1.41-.18.82l-6,.07C175.74,331.87,177.17,334.11,176.1,336Z" transform="translate(-104.05 -257.35)"/><path class="cls-9" d="M178,308c.24,3.81-.8,6.54-5.47,6-3-.32-3.66,1.47-3.48,4,.35,5.05-3.17,4.93-6.62,5-3.74.06-5.27-1.73-5.46-5.44-.22-4.26,2.77-7.8,2.33-12.06,0-.39.87-1.29,1.26-1.25,4.11.44,7.51-2.34,11.56-2.32C176.3,302,178.29,303.69,178,308Z" transform="translate(-104.05 -257.35)"/><path class="cls-10" d="M165.81,266.55c.21,2.16.66,3.42-.37,4.63A4.18,4.18,0,0,1,165.81,266.55Z" transform="translate(-104.05 -257.35)"/><path class="cls-6" d="M176.1,336c.2-2-.75-4.15.92-5.91C176.74,332,177.66,334.19,176.1,336Z" transform="translate(-104.05 -257.35)"/><path class="cls-11" d="M175.11,312c-.57,1.56-2,1.11-3,1-3.4-.45-4.51,1-4.09,4.23.51,3.89-2.22,3.58-4.79,3.76-3.26.23-4.53-1.05-4.3-4.31.18-2.58-.12-5.3,3.77-4.78,3.22.43,4.66-.73,4.22-4.11-.13-1-.54-2.39,1-3A15.21,15.21,0,0,0,175.11,312Z" transform="translate(-104.05 -257.35)"/><path class="cls-12" d="M175.11,312c-6.91-.23-6.91-.23-7.17-7.2C175.67,302.82,177.15,304.32,175.11,312Z" transform="translate(-104.05 -257.35)"/><path class="cls-13" d="M164.93,307.67c0,1.65-1,2.28-2.48,2.27a2.12,2.12,0,0,1-2.39-2.38c0-1.87,1-2.6,2.74-2.5S165,306.18,164.93,307.67Z" transform="translate(-104.05 -257.35)"/></svg>